<svg width="512" height="512" viewBox="0 0 512 512" fill="none" xmlns="http://www.w3.org/2000/svg">
<path d="M293.241 350.489L289.911 351.208L289.361 354.57C288.111 362.227 286.125 369.616 283.452 376.678L282.245 379.865L284.771 382.153L307.034 402.326C304.59 407.19 301.923 411.894 298.995 416.397L270.422 407.185L267.177 406.139L265.018 408.778C260.158 414.719 254.714 420.155 248.77 425.018L246.131 427.177L247.177 430.422L256.389 458.995C251.887 461.921 247.183 464.585 242.316 467.032L222.145 444.771L219.857 442.245L216.67 443.452C209.607 446.125 202.227 448.111 194.563 449.361L191.2 449.91L190.481 453.241L184.125 482.678C181.389 482.866 178.702 483 176 483C173.297 483 170.608 482.866 167.867 482.677L161.511 453.241L160.792 449.911L157.43 449.361C149.773 448.111 142.384 446.125 135.322 443.452L132.135 442.245L129.847 444.771L109.674 467.034C104.81 464.59 100.106 461.923 95.6031 458.995L104.815 430.422L105.861 427.177L103.222 425.018C97.2812 420.158 91.8439 414.714 86.98 408.776L84.8208 406.14L81.5778 407.185L53.005 416.397C50.0791 411.895 47.4152 407.191 44.9678 402.324L67.2293 382.153L69.7546 379.865L68.5482 376.678C65.8748 369.615 63.8892 362.235 62.6387 354.571L62.09 351.208L58.7592 350.489L29.3226 344.133C29.134 341.392 29 338.703 29 336C29 333.297 29.134 330.608 29.3226 327.867L58.7592 321.511L62.0894 320.792L62.6386 317.43C63.8892 309.773 65.8751 302.384 68.5482 295.322L69.7546 292.135L67.2293 289.847L44.9659 269.674C47.4097 264.81 50.0766 260.106 53.0045 255.603L81.5778 264.815L84.823 265.861L86.982 263.222C91.8418 257.281 97.2856 251.845 103.23 246.982L105.869 244.823L104.823 241.578L95.6113 213.005C100.113 210.079 104.817 207.415 109.684 204.968L129.855 227.229L132.143 229.755L135.33 228.548C142.393 225.875 149.773 223.889 157.437 222.639L160.8 222.09L161.519 218.759L167.875 189.322C170.611 189.134 173.298 189 176 189C178.703 189 181.392 189.134 184.133 189.323L190.489 218.759L191.208 222.089L194.57 222.639C202.227 223.889 209.616 225.875 216.678 228.548L219.865 229.755L222.153 227.229L242.326 204.966C247.19 207.41 251.894 210.077 256.397 213.005L247.185 241.578L246.139 244.823L248.778 246.982C254.719 251.842 260.155 257.286 265.018 263.23L267.177 265.869L270.422 264.823L298.995 255.611C301.921 260.113 304.585 264.817 307.032 269.684L284.771 289.855L282.245 292.143L283.452 295.33C286.125 302.393 288.111 309.773 289.361 317.437L289.91 320.8L293.241 321.519L322.678 327.875C322.866 330.611 323 333.298 323 336C323 338.703 322.866 341.392 322.677 344.133L293.241 350.489ZM176 251C129.055 251 91 289.055 91 336C91 382.945 129.055 421 176 421C222.945 421 261 382.945 261 336C261 289.055 222.945 251 176 251Z" stroke="black" stroke-width="10"/>
<mask id="path-2-inside-1" fill="white">
<path d="M405.272 130.44C404.024 134.576 402.392 138.544 400.384 142.28L413.016 166.488C408.752 171.88 403.888 176.744 398.496 181.008L374.288 168.376C370.552 170.392 366.584 172.024 362.448 173.264L354.256 199.344C350.88 199.744 347.472 200 344 200C340.528 200 337.12 199.744 333.752 199.352L325.56 173.272C321.424 172.032 317.456 170.392 313.72 168.384L289.512 181.016C284.12 176.752 279.256 171.888 274.992 166.496L287.624 142.288C285.608 138.552 283.976 134.584 282.736 130.448L256.656 122.256C256.256 118.88 256 115.472 256 112C256 108.528 256.256 105.12 256.648 101.752L282.728 93.56C283.968 89.424 285.608 85.456 287.616 81.72L274.984 57.512C279.248 52.12 284.112 47.256 289.504 42.992L313.712 55.624C317.448 53.608 321.416 51.976 325.552 50.736L333.744 24.656C337.12 24.256 340.528 24 344 24C347.472 24 350.88 24.256 354.248 24.648L362.44 50.728C366.576 51.968 370.544 53.608 374.28 55.616L398.488 42.984C403.88 47.248 408.744 52.112 413.008 57.504L400.376 81.712C402.392 85.448 404.024 89.416 405.264 93.552L431.344 101.744C431.744 105.12 432 108.528 432 112C432 115.472 431.744 118.88 431.352 122.248L405.272 130.44ZM344 80C326.328 80 312 94.328 312 112C312 129.672 326.328 144 344 144C361.672 144 376 129.672 376 112C376 94.328 361.672 80 344 80Z"/>
</mask>
<path d="M405.272 130.44L390.288 82.7379L365.047 90.6666L357.404 115.996L405.272 130.44ZM400.384 142.28L356.342 118.609L343.806 141.934L356.056 165.411L400.384 142.28ZM413.016 166.488L452.235 197.502L472.335 172.085L457.344 143.357L413.016 166.488ZM398.496 181.008L375.365 225.336L404.093 240.327L429.51 220.227L398.496 181.008ZM374.288 168.376L397.419 124.048L373.895 111.773L350.544 124.374L374.288 168.376ZM362.448 173.264L348.089 125.37L322.692 132.984L314.746 158.28L362.448 173.264ZM354.256 199.344L360.139 248.997L392.264 245.19L401.958 214.328L354.256 199.344ZM333.752 199.352L286.05 214.336L295.766 245.268L327.972 249.017L333.752 199.352ZM325.56 173.272L373.262 158.288L365.316 132.992L339.919 125.378L325.56 173.272ZM313.72 168.384L337.391 124.342L314.066 111.806L290.589 124.056L313.72 168.384ZM289.512 181.016L258.498 220.235L283.915 240.335L312.643 225.344L289.512 181.016ZM274.992 166.496L230.664 143.365L215.673 172.093L235.773 197.51L274.992 166.496ZM287.624 142.288L331.952 165.419L344.227 141.895L331.626 118.544L287.624 142.288ZM282.736 130.448L330.63 116.089L323.016 90.6916L297.72 82.7459L282.736 130.448ZM256.656 122.256L207.003 128.139L210.81 160.264L241.672 169.958L256.656 122.256ZM256.648 101.752L241.664 54.0499L210.732 63.7662L206.983 95.9715L256.648 101.752ZM282.728 93.56L297.712 141.262L323.008 133.316L330.622 107.919L282.728 93.56ZM287.616 81.72L331.658 105.391L344.194 82.066L331.944 58.5892L287.616 81.72ZM274.984 57.512L235.765 26.4977L215.665 51.9147L230.656 80.6428L274.984 57.512ZM289.504 42.992L312.635 -1.33594L283.907 -16.3266L258.49 3.7732L289.504 42.992ZM313.712 55.624L290.581 99.9519L314.105 112.227L337.456 99.6264L313.712 55.624ZM325.552 50.736L339.911 98.6299L365.308 91.0155L373.254 65.7197L325.552 50.736ZM333.744 24.656L327.861 -24.9967L295.736 -21.1904L286.042 9.6723L333.744 24.656ZM354.248 24.648L401.95 9.66425L392.234 -21.2684L360.028 -25.0167L354.248 24.648ZM362.44 50.728L314.738 65.7118L322.684 91.0075L348.081 98.6219L362.44 50.728ZM374.28 55.616L350.609 99.6577L373.934 112.194L397.411 99.9439L374.28 55.616ZM398.488 42.984L429.502 3.7652L404.085 -16.3346L375.357 -1.34394L398.488 42.984ZM413.008 57.504L457.336 80.6348L472.327 51.9067L452.227 26.4897L413.008 57.504ZM400.376 81.712L356.048 58.5812L343.773 82.1052L356.374 105.456L400.376 81.712ZM405.264 93.552L357.37 107.911L364.984 133.308L390.28 141.254L405.264 93.552ZM431.344 101.744L480.997 95.861L477.19 63.7362L446.328 54.0419L431.344 101.744ZM431.352 122.248L446.336 169.95L477.268 160.234L481.017 128.028L431.352 122.248ZM357.404 115.996C357.082 117.061 356.71 117.925 356.342 118.609L444.426 165.951C448.074 159.163 450.966 152.091 453.14 144.884L357.404 115.996ZM356.056 165.411L368.688 189.619L457.344 143.357L444.712 119.149L356.056 165.411ZM373.797 135.474C371.94 137.822 369.83 139.932 367.482 141.789L429.51 220.227C437.946 213.556 445.564 205.938 452.235 197.502L373.797 135.474ZM421.627 136.68L397.419 124.048L351.157 212.704L375.365 225.336L421.627 136.68ZM350.544 124.374C349.905 124.718 349.093 125.069 348.089 125.37L376.807 221.158C384.075 218.979 391.199 216.066 398.032 212.378L350.544 124.374ZM314.746 158.28L306.554 184.36L401.958 214.328L410.15 188.248L314.746 158.28ZM348.373 149.691C346.407 149.924 345.026 150 344 150V250C349.918 250 355.353 249.564 360.139 248.997L348.373 149.691ZM344 150C342.967 150 341.562 149.923 339.532 149.687L327.972 249.017C332.678 249.565 338.089 250 344 250V150ZM381.454 184.368L373.262 158.288L277.858 188.256L286.05 214.336L381.454 184.368ZM339.919 125.378C338.97 125.094 338.125 124.737 337.391 124.342L290.049 212.426C296.787 216.047 303.878 218.97 311.201 221.166L339.919 125.378ZM290.589 124.056L266.381 136.688L312.643 225.344L336.851 212.712L290.589 124.056ZM320.526 141.797C318.178 139.94 316.068 137.83 314.211 135.482L235.773 197.51C242.444 205.946 250.062 213.564 258.498 220.235L320.526 141.797ZM319.32 189.627L331.952 165.419L243.296 119.157L230.664 143.365L319.32 189.627ZM331.626 118.544C331.282 117.905 330.931 117.093 330.63 116.089L234.842 144.807C237.021 152.075 239.934 159.199 243.622 166.032L331.626 118.544ZM297.72 82.7459L271.64 74.5539L241.672 169.958L267.752 178.15L297.72 82.7459ZM306.309 116.373C306.076 114.407 306 113.026 306 112H206C206 117.918 206.436 123.353 207.003 128.139L306.309 116.373ZM306 112C306 110.967 306.077 109.562 306.313 107.532L206.983 95.9715C206.435 100.678 206 106.089 206 112H306ZM271.632 149.454L297.712 141.262L267.744 45.8579L241.664 54.0499L271.632 149.454ZM330.622 107.919C330.906 106.97 331.263 106.125 331.658 105.391L243.574 58.0488C239.953 64.7867 237.03 71.8779 234.834 79.2011L330.622 107.919ZM331.944 58.5892L319.312 34.3812L230.656 80.6428L243.288 104.851L331.944 58.5892ZM314.203 88.5263C316.06 86.1782 318.17 84.0676 320.518 82.2108L258.49 3.7732C250.054 10.4444 242.436 18.0618 235.765 26.4977L314.203 88.5263ZM266.373 87.3199L290.581 99.9519L336.843 11.2961L312.635 -1.33594L266.373 87.3199ZM337.456 99.6264C338.095 99.2816 338.907 98.931 339.911 98.6299L311.193 2.84214C303.925 5.02105 296.801 7.93436 289.968 11.6216L337.456 99.6264ZM373.254 65.7197L381.446 39.6397L286.042 9.6723L277.85 35.7523L373.254 65.7197ZM339.627 74.3087C341.593 74.0758 342.974 74 344 74V-26C338.082 -26 332.647 -25.5638 327.861 -24.9967L339.627 74.3087ZM344 74C345.033 74 346.438 74.0766 348.468 74.3127L360.028 -25.0167C355.322 -25.5646 349.911 -26 344 -26V74ZM306.546 39.6317L314.738 65.7118L410.142 35.7443L401.95 9.66425L306.546 39.6317ZM348.081 98.6219C349.03 98.9063 349.875 99.2632 350.609 99.6577L397.951 11.5743C391.213 7.95285 384.122 5.02967 376.799 2.83414L348.081 98.6219ZM397.411 99.9439L421.619 87.3119L375.357 -1.34394L351.149 11.2881L397.411 99.9439ZM367.474 82.2028C369.822 84.0596 371.932 86.1702 373.789 88.5183L452.227 26.4897C445.556 18.0538 437.938 10.4364 429.502 3.7652L367.474 82.2028ZM368.68 34.3732L356.048 58.5812L444.704 104.843L457.336 80.6348L368.68 34.3732ZM356.374 105.456C356.718 106.095 357.069 106.907 357.37 107.911L453.158 79.1931C450.979 71.9254 448.066 64.8009 444.378 57.9677L356.374 105.456ZM390.28 141.254L416.36 149.446L446.328 54.0419L420.248 45.8499L390.28 141.254ZM381.691 107.627C381.924 109.593 382 110.974 382 112H482C482 106.082 481.564 100.647 480.997 95.861L381.691 107.627ZM382 112C382 113.033 381.923 114.438 381.687 116.468L481.017 128.028C481.565 123.322 482 117.911 482 112H382ZM416.368 74.5459L390.288 82.7379L420.256 178.142L446.336 169.95L416.368 74.5459ZM344 30C298.714 30 262 66.7138 262 112H362C362 121.942 353.942 130 344 130V30ZM262 112C262 157.286 298.714 194 344 194V94C353.942 94 362 102.058 362 112H262ZM344 194C389.286 194 426 157.286 426 112H326C326 102.058 334.058 94 344 94V194ZM426 112C426 66.7138 389.286 30 344 30V130C334.058 130 326 121.942 326 112H426Z" fill="#EB1717" mask="url(#path-2-inside-1)"/>
<path d="M468.237 306.257L465.789 307.127L465.094 309.631C463.968 313.687 462.387 317.516 460.369 321.081L459.088 323.342L460.204 325.69L466.803 339.578C464.58 342.166 462.166 344.58 459.578 346.803L445.69 340.204L443.34 339.087L441.077 340.371C437.525 342.386 433.69 343.968 429.631 345.094L427.127 345.789L426.257 348.237L421.089 362.772C419.389 362.917 417.698 363 416 363C414.302 363 412.611 362.917 410.911 362.772L405.743 348.237L404.873 345.789L402.369 345.094C398.313 343.968 394.484 342.387 390.919 340.369L388.658 339.088L386.31 340.204L372.422 346.803C369.834 344.58 367.42 342.166 365.197 339.578L371.796 325.69L372.913 323.34L371.629 321.077C369.614 317.525 368.032 313.689 366.905 309.637L366.21 307.135L363.763 306.265L349.228 301.097C349.083 299.393 349 297.7 349 296C349 294.302 349.083 292.611 349.228 290.911L363.763 285.743L366.211 284.873L366.906 282.369C368.032 278.312 369.613 274.485 371.629 270.931L372.913 268.668L371.796 266.318L365.197 252.43C367.42 249.842 369.834 247.428 372.422 245.205L386.31 251.804L388.66 252.921L390.923 251.637C394.475 249.622 398.31 248.04 402.369 246.914L404.873 246.219L405.743 243.771L410.914 229.23C412.61 229.083 414.301 229 416 229C417.698 229 419.389 229.083 421.089 229.228L426.257 243.763L427.127 246.211L429.631 246.906C433.687 248.031 437.516 249.613 441.081 251.631L443.342 252.912L445.69 251.796L459.578 245.197C462.166 247.42 464.58 249.834 466.803 252.422L460.204 266.31L459.087 268.66L460.371 270.923C462.386 274.475 463.968 278.31 465.094 282.369L465.789 284.873L468.237 285.743L482.772 290.911C482.917 292.611 483 294.302 483 296C483 297.698 482.917 299.389 482.772 301.089L468.237 306.257ZM416 267C399.983 267 387 279.983 387 296C387 312.017 399.983 325 416 325C432.017 325 445 312.017 445 296C445 279.983 432.017 267 416 267Z" stroke="black" stroke-width="10"/>
<path d="M489.728 40.16L441.88 30.592L432.312 78.432L448 81.576L452.312 60.04C460.064 76.168 464.16 93.944 464.16 112C464.16 139.584 455.056 165.52 437.84 187L450.328 197.008C469.568 173 480.16 142.816 480.16 112C480.16 91.048 475.32 70.392 466.112 51.752L486.592 55.848L489.728 40.16Z" fill="black"/>
<path d="M190.48 104L179.168 115.312L190.04 126.184C185.64 125.904 181.232 125.656 176.824 125.656C114.936 125.656 56.68 152.944 17 200.528L29.288 210.776C65.92 166.848 119.688 141.656 176.824 141.656C180.896 141.656 184.96 141.888 189.024 142.144L179.168 152L190.48 163.312L220.136 133.656L190.48 104Z" fill="black"/>
</svg>
